<svg xmlns="http://www.w3.org/2000/svg" viewBox="0 0 580 90" style="background:transparent">
  <defs>
    <radialGradient id="og" cx="40%" cy="35%" r="60%">
      <stop offset="0%" stop-color="#CE93D8"/>
      <stop offset="40%" stop-color="#7B2FBE"/>
      <stop offset="100%" stop-color="#1A0030"/>
    </radialGradient>
    <linearGradient id="tg" x1="0%" y1="0%" x2="100%" y2="0%">
      <stop offset="0%" stop-color="#FFFFFF"/>
      <stop offset="45%" stop-color="#90CAF9"/>
      <stop offset="100%" stop-color="#00E5FF"/>
    </linearGradient>
    <linearGradient id="gl" x1="0%" y1="0%" x2="100%" y2="0%">
      <stop offset="0%" stop-color="#00E5FF" stop-opacity="0"/>
      <stop offset="30%" stop-color="#00E5FF" stop-opacity="0.9"/>
      <stop offset="70%" stop-color="#00E5FF" stop-opacity="0.9"/>
      <stop offset="100%" stop-color="#00E5FF" stop-opacity="0"/>
    </linearGradient>
    <linearGradient id="cg" x1="0%" y1="0%" x2="100%" y2="100%">
      <stop offset="0%" stop-color="#00E5FF"/>
      <stop offset="100%" stop-color="#7B2FBE"/>
    </linearGradient>
  </defs>
  <!-- Fondo explícitamente transparente -->
  <rect width="580" height="90" fill="none"/>
  <circle cx="46" cy="46" r="42" fill="url(#og)"/>
  <circle cx="46" cy="46" r="42" fill="none" stroke="#7B2FBE" stroke-width="1" opacity="0.5"/>
  <g stroke="url(#cg)" stroke-width="0.9" fill="none" opacity="0.9">
    <line x1="46" y1="4" x2="46" y2="20"/>
    <line x1="32" y1="20" x2="60" y2="20"/>
    <line x1="16" y1="26" x2="32" y2="20"/>
    <line x1="76" y1="26" x2="60" y2="20"/>
    <line x1="10" y1="46" x2="24" y2="46"/>
    <line x1="68" y1="46" x2="82" y2="46"/>
    <line x1="16" y1="66" x2="32" y2="72"/>
    <line x1="76" y1="66" x2="60" y2="72"/>
    <line x1="32" y1="72" x2="60" y2="72"/>
    <line x1="46" y1="72" x2="46" y2="86"/>
    <line x1="32" y1="20" x2="24" y2="32"/>
    <line x1="60" y1="20" x2="68" y2="32"/>
    <line x1="24" y1="32" x2="24" y2="46"/>
    <line x1="68" y1="32" x2="68" y2="46"/>
    <line x1="24" y1="46" x2="24" y2="60"/>
    <line x1="68" y1="46" x2="68" y2="60"/>
    <line x1="24" y1="60" x2="32" y2="72"/>
    <line x1="68" y1="60" x2="60" y2="72"/>
  </g>
  <g fill="#00E5FF">
    <circle cx="46" cy="4" r="2.5"/>
    <circle cx="32" cy="20" r="2"/>
    <circle cx="60" cy="20" r="2"/>
    <circle cx="10" cy="46" r="2"/>
    <circle cx="82" cy="46" r="2"/>
    <circle cx="32" cy="72" r="2"/>
    <circle cx="60" cy="72" r="2"/>
    <circle cx="46" cy="86" r="2.5"/>
    <circle cx="24" cy="32" r="1.5"/>
    <circle cx="68" cy="32" r="1.5"/>
    <circle cx="24" cy="60" r="1.5"/>
    <circle cx="68" cy="60" r="1.5"/>
  </g>
  <line x1="60" y1="18" x2="78" y2="4" stroke="#00E5FF" stroke-width="1.5"/>
  <polygon points="80,0 86,8 76,10" fill="#00E5FF"/>
  <circle cx="46" cy="46" r="11" fill="#0D001A" stroke="#CE93D8" stroke-width="1.5"/>
  <circle cx="46" cy="46" r="7" fill="#7B2FBE"/>
  <circle cx="43" cy="43" r="3" fill="#CE93D8" opacity="0.85"/>
  <text x="96" y="68" font-family="Arial Black,sans-serif" font-weight="900" font-size="60" fill="url(#tg)" letter-spacing="-1.5">utilTech</text>
  <!-- Línea glow cian — sin blanco -->
  <rect x="0" y="78" width="580" height="2" rx="1" fill="url(#gl)"/>
  <!-- Eslogan en cian claro, no blanco -->
  <text x="290" y="88" font-family="Arial,sans-serif" font-size="8.5" fill="#90CAF9" letter-spacing="3.5" opacity="0.85" text-anchor="middle">Technology.Security.Solutions.</text>
</svg>
